<?xml version="1.0" encoding="UTF-8"?>
<svg xmlns="http://www.w3.org/2000/svg" xmlns:xlink="http://www.w3.org/1999/xlink" width="16px" height="10px" viewBox="0 0 16 10" version="1.1">
<g id="surface1">
<path style=" stroke:none;fill-rule:evenodd;fill:rgb(0%,0%,0%);fill-opacity:1;" d="M 3.570312 7.847656 L 3.570312 8.117188 L 3.574219 8.234375 L 3.589844 8.492188 L 3.605469 8.609375 L 3.609375 8.699219 L 3.617188 8.761719 L 3.617188 8.84375 L 3.609375 8.894531 L 3.605469 8.945312 L 3.582031 9.046875 L 3.5625 9.09375 L 3.542969 9.136719 L 3.519531 9.183594 L 3.5 9.230469 L 3.4375 9.324219 L 3.367188 9.410156 L 3.328125 9.453125 L 3.285156 9.496094 L 3.238281 9.535156 L 3.191406 9.578125 L 3.089844 9.648438 L 3.039062 9.679688 L 2.984375 9.710938 L 2.933594 9.738281 L 2.878906 9.761719 L 2.820312 9.785156 L 2.761719 9.804688 L 2.703125 9.820312 L 2.640625 9.835938 L 2.578125 9.84375 L 2.515625 9.855469 L 2.382812 9.863281 L 2.21875 9.863281 L 2.125 9.859375 L 1.9375 9.835938 L 1.847656 9.816406 L 1.761719 9.792969 L 1.597656 9.738281 L 1.441406 9.667969 L 1.292969 9.582031 L 1.222656 9.53125 L 1.15625 9.476562 L 1.089844 9.417969 L 1.023438 9.355469 L 0.960938 9.289062 L 0.902344 9.222656 L 0.851562 9.148438 L 0.796875 9.070312 L 0.746094 8.996094 L 0.699219 8.910156 L 0.65625 8.824219 L 0.613281 8.734375 L 0.578125 8.644531 L 0.542969 8.546875 L 0.480469 8.34375 L 0.457031 8.238281 L 0.433594 8.128906 L 0.414062 8.015625 L 0.394531 7.898438 L 0 7.753906 L 0.0390625 7.628906 L 0.0820312 7.507812 L 0.128906 7.386719 L 0.183594 7.273438 L 0.246094 7.160156 L 0.308594 7.050781 L 0.34375 7 L 0.421875 6.890625 L 0.457031 6.839844 L 0.476562 6.664062 L 0.503906 6.492188 L 0.519531 6.410156 L 0.535156 6.324219 L 0.550781 6.242188 L 0.570312 6.164062 L 0.59375 6.082031 L 0.613281 6.003906 L 0.636719 5.929688 L 0.664062 5.851562 L 0.6875 5.773438 L 0.714844 5.699219 L 0.742188 5.628906 L 0.773438 5.558594 L 0.804688 5.484375 L 0.835938 5.414062 L 0.871094 5.347656 L 0.90625 5.277344 L 0.984375 5.144531 L 1.0625 5.019531 L 1.109375 4.953125 L 1.148438 4.894531 L 1.289062 4.71875 L 1.339844 4.660156 L 1.390625 4.605469 L 1.496094 4.5 L 1.554688 4.445312 L 1.609375 4.394531 L 1.664062 4.347656 L 1.726562 4.300781 L 1.785156 4.25 L 1.847656 4.207031 L 1.910156 4.160156 L 1.972656 4.117188 L 2.039062 4.070312 L 2.109375 4.03125 L 2.175781 3.992188 L 2.3125 3.914062 L 2.460938 3.839844 L 2.609375 3.773438 L 2.765625 3.710938 L 2.929688 3.652344 L 3.097656 3.597656 L 3.269531 3.550781 L 3.628906 3.464844 L 3.816406 3.429688 L 3.785156 3.371094 L 3.746094 3.308594 L 3.707031 3.253906 L 3.65625 3.199219 L 3.601562 3.148438 L 3.542969 3.101562 L 3.476562 3.058594 L 3.402344 3.015625 L 3.328125 2.976562 L 3.15625 2.90625 L 3.0625 2.878906 L 2.960938 2.851562 L 2.855469 2.828125 L 2.628906 2.789062 L 2.5625 2.78125 L 2.503906 2.769531 L 2.453125 2.761719 L 2.414062 2.753906 L 2.3125 2.738281 L 2.210938 2.71875 L 2.117188 2.699219 L 1.9375 2.652344 L 1.855469 2.628906 L 1.777344 2.601562 L 1.699219 2.570312 L 1.625 2.542969 L 1.492188 2.480469 L 1.429688 2.445312 L 1.371094 2.410156 L 1.316406 2.371094 L 1.265625 2.335938 L 1.21875 2.296875 L 1.132812 2.210938 L 1.09375 2.164062 L 1.058594 2.117188 L 1.023438 2.066406 L 0.96875 1.957031 L 0.945312 1.902344 L 0.921875 1.84375 L 0.902344 1.785156 L 0.886719 1.722656 L 0.875 1.65625 L 0.859375 1.523438 L 0.855469 1.449219 L 0.851562 1.378906 L 0.851562 1.324219 L 0.855469 1.265625 L 0.863281 1.210938 L 0.867188 1.15625 L 0.878906 1.101562 L 0.886719 1.050781 L 0.917969 0.949219 L 0.933594 0.902344 L 0.953125 0.851562 L 0.972656 0.804688 L 0.996094 0.757812 L 1.023438 0.710938 L 1.046875 0.667969 L 1.074219 0.625 L 1.105469 0.582031 L 1.140625 0.535156 L 1.171875 0.496094 L 1.210938 0.457031 L 1.246094 0.417969 L 1.285156 0.382812 L 1.371094 0.3125 L 1.417969 0.28125 L 1.464844 0.246094 L 1.511719 0.214844 L 1.613281 0.160156 L 1.667969 0.132812 L 1.726562 0.109375 L 1.78125 0.0820312 L 1.839844 0.0625 L 2.550781 0.0234375 L 2.511719 0.0703125 L 2.472656 0.113281 L 2.4375 0.15625 L 2.40625 0.199219 L 2.351562 0.285156 L 2.328125 0.332031 L 2.304688 0.375 L 2.285156 0.421875 L 2.265625 0.464844 L 2.242188 0.558594 L 2.230469 0.601562 L 2.226562 0.648438 L 2.21875 0.734375 L 2.222656 0.769531 L 2.226562 0.808594 L 2.226562 0.84375 L 2.234375 0.878906 L 2.246094 0.914062 L 2.253906 0.953125 L 2.265625 0.988281 L 2.28125 1.023438 L 2.296875 1.0625 L 2.316406 1.097656 L 2.335938 1.136719 L 2.359375 1.171875 L 2.410156 1.246094 L 2.46875 1.320312 L 2.535156 1.394531 L 2.605469 1.46875 L 2.6875 1.546875 L 2.777344 1.621094 L 2.871094 1.699219 L 2.976562 1.773438 L 3.089844 1.847656 L 3.207031 1.925781 L 3.257812 1.957031 L 3.300781 1.984375 L 3.339844 2.007812 L 3.371094 2.023438 L 3.476562 2.097656 L 3.578125 2.171875 L 3.671875 2.25 L 3.761719 2.324219 L 3.84375 2.398438 L 3.921875 2.476562 L 3.996094 2.558594 L 4.058594 2.632812 L 4.121094 2.71875 L 4.175781 2.804688 L 4.230469 2.894531 L 4.28125 2.984375 L 4.328125 3.082031 L 4.371094 3.183594 L 4.449219 3.394531 L 4.664062 3.421875 L 4.871094 3.457031 L 4.96875 3.476562 L 5.066406 3.492188 L 5.164062 3.515625 L 5.257812 3.535156 L 5.351562 3.558594 L 5.441406 3.585938 L 5.527344 3.613281 L 5.609375 3.640625 L 5.691406 3.671875 L 5.773438 3.699219 L 5.851562 3.730469 L 5.925781 3.761719 L 5.996094 3.796875 L 6.070312 3.832031 L 6.140625 3.871094 L 6.210938 3.90625 L 6.28125 3.949219 L 6.347656 3.992188 L 6.410156 4.035156 L 6.476562 4.082031 L 6.535156 4.128906 L 6.597656 4.175781 L 6.714844 4.277344 L 6.878906 4.441406 L 6.933594 4.503906 L 6.992188 4.46875 L 6.890625 4.273438 L 6.804688 4.078125 L 6.765625 3.984375 L 6.695312 3.796875 L 6.640625 3.617188 L 6.613281 3.53125 L 6.597656 3.441406 L 6.582031 3.355469 L 6.566406 3.273438 L 6.5625 3.191406 L 6.554688 3.113281 L 6.554688 2.925781 L 6.5625 2.820312 L 6.59375 2.617188 L 6.613281 2.519531 L 6.640625 2.421875 L 6.671875 2.328125 L 6.710938 2.234375 L 6.796875 2.0625 L 6.851562 1.976562 L 6.90625 1.894531 L 6.964844 1.816406 L 7.03125 1.738281 L 7.101562 1.660156 L 7.179688 1.585938 L 7.257812 1.519531 L 7.339844 1.453125 L 7.511719 1.335938 L 7.601562 1.285156 L 7.695312 1.238281 L 7.789062 1.195312 L 7.886719 1.160156 L 7.988281 1.125 L 8.089844 1.09375 L 8.195312 1.070312 L 8.300781 1.050781 L 8.414062 1.035156 L 8.523438 1.023438 L 8.757812 1.015625 L 8.835938 1.015625 L 9.058594 1.027344 L 9.132812 1.035156 L 9.207031 1.046875 L 9.277344 1.058594 L 9.351562 1.070312 L 9.492188 1.101562 L 9.632812 1.140625 L 9.703125 1.164062 L 9.769531 1.1875 L 9.839844 1.210938 L 9.90625 1.238281 L 10.039062 1.300781 L 10.109375 1.332031 L 10.234375 1.402344 L 10.367188 1.480469 L 10.425781 1.519531 L 10.550781 1.605469 L 10.675781 1.699219 L 10.734375 1.75 L 10.796875 1.804688 L 10.851562 1.859375 L 10.914062 1.910156 L 11.023438 2.023438 L 11.132812 2.140625 L 11.183594 2.203125 L 11.230469 2.257812 L 11.277344 2.324219 L 11.328125 2.382812 L 11.371094 2.445312 L 11.414062 2.511719 L 11.5 2.636719 L 11.570312 2.769531 L 11.609375 2.835938 L 11.671875 2.976562 L 11.707031 3.042969 L 11.761719 3.183594 L 11.789062 3.257812 L 11.8125 3.328125 L 11.859375 3.476562 L 11.878906 3.550781 L 11.898438 3.628906 L 11.914062 3.703125 L 11.929688 3.78125 L 11.964844 4.015625 L 11.972656 4.09375 L 11.980469 4.164062 L 11.984375 4.234375 L 11.992188 4.316406 L 12 4.402344 L 12.007812 4.496094 L 12.015625 4.597656 L 12.027344 4.699219 L 12.035156 4.8125 L 12.074219 5.207031 L 12.113281 5.558594 L 12.132812 5.71875 L 12.15625 5.867188 L 12.171875 6.007812 L 12.195312 6.140625 L 12.21875 6.261719 L 12.242188 6.371094 L 12.261719 6.472656 L 12.285156 6.5625 L 12.308594 6.644531 L 12.332031 6.714844 L 12.359375 6.773438 L 12.382812 6.824219 L 12.429688 6.90625 L 12.480469 6.980469 L 12.535156 7.050781 L 12.59375 7.117188 L 12.65625 7.183594 L 12.722656 7.238281 L 12.796875 7.292969 L 12.875 7.34375 L 12.953125 7.386719 L 13.03125 7.425781 L 13.117188 7.460938 L 13.199219 7.488281 L 13.285156 7.507812 L 13.371094 7.519531 L 13.460938 7.53125 L 13.546875 7.535156 L 13.613281 7.535156 L 13.671875 7.527344 L 13.734375 7.519531 L 13.789062 7.511719 L 13.847656 7.5 L 13.90625 7.484375 L 13.960938 7.464844 L 14.011719 7.445312 L 14.066406 7.417969 L 14.117188 7.394531 L 14.167969 7.367188 L 14.21875 7.332031 L 14.261719 7.300781 L 14.355469 7.222656 L 14.441406 7.136719 L 14.476562 7.089844 L 14.511719 7.039062 L 14.546875 6.992188 L 14.578125 6.941406 L 14.605469 6.886719 L 14.632812 6.835938 L 14.652344 6.78125 L 14.671875 6.722656 L 14.6875 6.667969 L 14.71875 6.550781 L 14.734375 6.425781 L 14.734375 6.234375 L 14.730469 6.164062 L 14.71875 6.09375 L 14.699219 6.015625 L 14.679688 5.929688 L 14.648438 5.828125 L 14.613281 5.714844 L 14.570312 5.589844 L 14.601562 5.535156 L 14.636719 5.488281 L 14.714844 5.394531 L 14.753906 5.355469 L 14.796875 5.324219 L 14.839844 5.289062 L 14.890625 5.257812 L 14.984375 5.210938 L 15.039062 5.1875 L 15.09375 5.171875 L 15.203125 5.148438 L 15.265625 5.144531 L 15.324219 5.140625 L 15.398438 5.144531 L 15.464844 5.15625 L 15.5 5.164062 L 15.53125 5.167969 L 15.5625 5.179688 L 15.597656 5.191406 L 15.625 5.207031 L 15.652344 5.21875 L 15.683594 5.234375 L 15.710938 5.253906 L 15.734375 5.269531 L 15.761719 5.292969 L 15.785156 5.3125 L 15.8125 5.335938 L 15.855469 5.386719 L 15.894531 5.441406 L 15.910156 5.464844 L 15.925781 5.496094 L 15.941406 5.523438 L 15.953125 5.554688 L 15.964844 5.582031 L 15.972656 5.617188 L 15.988281 5.679688 L 15.996094 5.746094 L 16 5.816406 L 16 5.859375 L 15.992188 5.953125 L 15.980469 6 L 15.972656 6.046875 L 15.957031 6.09375 L 15.945312 6.140625 L 15.925781 6.1875 L 15.90625 6.230469 L 15.886719 6.28125 L 15.863281 6.328125 L 15.835938 6.378906 L 15.8125 6.429688 L 15.75 6.53125 L 15.714844 6.582031 L 15.636719 6.679688 L 15.554688 6.789062 L 15.457031 6.894531 L 15.355469 7.003906 L 15.113281 7.230469 L 14.976562 7.347656 L 14.835938 7.464844 L 14.640625 7.621094 L 14.445312 7.765625 L 14.253906 7.910156 L 14.066406 8.046875 L 13.875 8.183594 L 13.683594 8.3125 L 13.496094 8.4375 L 13.308594 8.558594 L 13.117188 8.671875 L 12.929688 8.78125 L 12.742188 8.886719 L 12.558594 8.988281 L 12.375 9.082031 L 12.1875 9.171875 L 12.003906 9.257812 L 11.824219 9.34375 L 11.640625 9.417969 L 11.28125 9.558594 L 11.101562 9.621094 L 10.925781 9.675781 L 10.746094 9.726562 L 10.570312 9.773438 L 10.398438 9.816406 L 10.222656 9.855469 L 10.050781 9.886719 L 9.878906 9.914062 L 9.710938 9.933594 L 9.539062 9.953125 L 9.371094 9.964844 L 9.203125 9.972656 L 9.039062 9.976562 L 8.933594 9.976562 L 8.832031 9.972656 L 8.726562 9.96875 L 8.628906 9.960938 L 8.523438 9.953125 L 8.425781 9.945312 L 8.332031 9.933594 L 8.230469 9.921875 L 8.042969 9.890625 L 7.949219 9.871094 L 7.769531 9.832031 L 7.589844 9.785156 L 7.5 9.757812 L 7.414062 9.726562 L 7.332031 9.699219 L 7.246094 9.667969 L 7.164062 9.632812 L 7.078125 9.601562 L 6.921875 9.523438 L 6.839844 9.484375 L 6.765625 9.441406 L 6.6875 9.398438 L 6.464844 9.257812 L 6.324219 9.15625 L 6.183594 9.046875 L 6.121094 8.992188 L 6.058594 8.933594 L 5.996094 8.878906 L 5.9375 8.816406 L 5.878906 8.761719 L 5.824219 8.699219 L 5.773438 8.640625 L 5.671875 8.515625 L 5.628906 8.453125 L 5.582031 8.390625 L 5.542969 8.324219 L 5.5 8.257812 L 5.394531 8.058594 L 5.363281 7.988281 L 5.308594 7.847656 L 5.285156 7.777344 L 5.261719 7.703125 L 5.238281 7.632812 L 5.191406 7.410156 L 5.167969 7.253906 L 5.164062 7.179688 L 5.15625 7.101562 L 5.152344 7.023438 L 5.152344 6.851562 L 5.160156 6.765625 L 5.167969 6.675781 L 5.175781 6.59375 L 5.207031 6.429688 L 5.226562 6.351562 L 5.273438 6.203125 L 5.300781 6.132812 L 5.332031 6.0625 L 5.402344 5.929688 L 5.445312 5.863281 L 5.53125 5.746094 L 5.632812 5.636719 L 5.742188 5.535156 L 5.859375 5.449219 L 5.925781 5.40625 L 5.992188 5.371094 L 6.132812 5.300781 L 6.207031 5.273438 L 6.363281 5.21875 L 6.445312 5.195312 L 6.527344 5.179688 L 6.613281 5.164062 L 6.632812 5.109375 L 6.578125 5.039062 L 6.515625 4.972656 L 6.460938 4.90625 L 6.398438 4.839844 L 6.339844 4.777344 L 6.277344 4.71875 L 6.21875 4.660156 L 6.15625 4.605469 L 6.09375 4.554688 L 6.03125 4.5 L 5.964844 4.453125 L 5.902344 4.402344 L 5.835938 4.359375 L 5.773438 4.316406 L 5.703125 4.277344 L 5.636719 4.238281 L 5.566406 4.203125 L 5.5 4.164062 L 5.429688 4.136719 L 5.289062 4.074219 L 5.222656 4.046875 L 5.152344 4.023438 L 4.929688 3.964844 L 4.859375 3.953125 L 4.78125 3.9375 L 4.707031 3.925781 L 4.632812 3.917969 L 4.554688 3.90625 L 4.480469 3.90625 L 4.472656 4.042969 L 4.460938 4.179688 L 4.445312 4.3125 L 4.421875 4.441406 L 4.367188 4.699219 L 4.332031 4.816406 L 4.292969 4.9375 L 4.25 5.054688 L 4.203125 5.167969 L 4.152344 5.277344 L 4.09375 5.390625 L 4.035156 5.492188 L 3.964844 5.597656 L 3.898438 5.699219 L 3.824219 5.792969 L 3.742188 5.890625 L 3.65625 5.984375 L 3.460938 6.179688 L 3.347656 6.273438 L 3.234375 6.371094 L 3.109375 6.464844 L 2.980469 6.558594 L 2.84375 6.65625 L 2.699219 6.75 L 2.546875 6.847656 L 2.386719 6.941406 L 2.222656 7.039062 L 2.050781 7.132812 L 1.867188 7.230469 L 1.679688 7.324219 L 1.695312 7.425781 L 1.71875 7.527344 L 1.730469 7.574219 L 1.746094 7.621094 L 1.761719 7.664062 L 1.78125 7.707031 L 1.796875 7.75 L 1.816406 7.789062 L 1.839844 7.832031 L 1.863281 7.867188 L 1.886719 7.90625 L 1.917969 7.941406 L 1.941406 7.976562 L 1.972656 8.003906 L 2.003906 8.039062 L 2.039062 8.066406 L 2.070312 8.09375 L 2.140625 8.140625 L 2.175781 8.160156 L 2.214844 8.179688 L 2.332031 8.226562 L 2.375 8.234375 L 2.417969 8.246094 L 2.460938 8.253906 L 2.503906 8.253906 L 2.550781 8.257812 L 2.648438 8.257812 L 2.703125 8.253906 L 2.757812 8.246094 L 2.8125 8.234375 L 2.863281 8.222656 L 2.917969 8.207031 L 2.972656 8.183594 L 3.089844 8.136719 L 3.148438 8.105469 L 3.210938 8.070312 L 3.277344 8.035156 L 3.347656 7.996094 L 3.414062 7.953125 L 3.492188 7.902344 Z M 1.511719 6.441406 L 1.671875 6.394531 L 1.96875 6.285156 L 2.109375 6.230469 L 2.246094 6.171875 L 2.375 6.117188 L 2.5 6.054688 L 2.617188 5.992188 L 2.730469 5.929688 L 2.835938 5.867188 L 2.9375 5.800781 L 3.035156 5.734375 L 3.125 5.667969 L 3.210938 5.597656 L 3.292969 5.523438 L 3.363281 5.453125 L 3.433594 5.375 L 3.5 5.300781 L 3.554688 5.222656 L 3.613281 5.140625 L 3.664062 5.054688 L 3.707031 4.96875 L 3.753906 4.878906 L 3.824219 4.691406 L 3.851562 4.59375 L 3.875 4.492188 L 3.894531 4.390625 L 3.910156 4.285156 L 3.921875 4.179688 L 3.929688 4.070312 L 3.929688 3.921875 L 3.785156 3.953125 L 3.648438 3.984375 L 3.382812 4.0625 L 3.140625 4.148438 L 3.019531 4.199219 L 2.910156 4.25 L 2.804688 4.304688 L 2.699219 4.363281 L 2.605469 4.421875 L 2.507812 4.488281 L 2.417969 4.554688 L 2.332031 4.621094 L 2.253906 4.695312 L 2.175781 4.765625 L 2.109375 4.847656 L 2.039062 4.929688 L 1.976562 5.015625 L 1.917969 5.101562 L 1.863281 5.195312 L 1.761719 5.390625 L 1.71875 5.492188 L 1.679688 5.601562 L 1.644531 5.710938 L 1.613281 5.824219 L 1.585938 5.941406 L 1.558594 6.0625 L 1.539062 6.1875 L 1.523438 6.3125 Z M 1.511719 6.441406 "/>
</g>
</svg>
