<?xml version="1.0" standalone="no"?>
<!DOCTYPE svg PUBLIC "-//W3C//DTD SVG 20010904//EN"
 "http://www.w3.org/TR/2001/REC-SVG-20010904/DTD/svg10.dtd">
<svg version="1.0" xmlns="http://www.w3.org/2000/svg"
 width="83.000000pt" height="92.000000pt" viewBox="0 0 83.000000 92.000000"
 preserveAspectRatio="xMidYMid meet">
<metadata>
Created by potrace 1.16, written by Peter Selinger 2001-2019
</metadata>
<g transform="translate(0.000000,92.000000) scale(0.100000,-0.100000)"
fill="#000000" stroke="none">
<path d="M71 893 c-46 -24 -75 -64 -66 -92 9 -29 50 -25 51 4 2 40 5 45 36 61
60 31 172 -1 257 -73 l34 -29 -36 -60 c-88 -143 -90 -364 -2 -364 34 0 35 9 4
40 -30 29 -35 54 -29 145 3 51 32 136 61 176 l23 32 32 -38 c39 -47 108 -174
124 -231 l13 -42 -44 -38 c-133 -116 -197 -209 -206 -297 -4 -43 -2 -57 13
-72 18 -18 19 -17 27 36 11 85 57 165 138 247 40 40 76 72 79 72 11 0 21 -93
14 -131 -14 -71 -66 -129 -117 -129 -11 0 -17 -5 -14 -12 6 -19 92 -13 130 9
38 23 72 80 81 136 4 22 2 74 -4 116 l-11 76 61 63 c70 71 99 128 100 190 0
64 -25 108 -79 140 -40 23 -57 27 -126 27 -67 0 -89 -4 -135 -27 l-54 -27 -31
23 c-16 13 -55 36 -85 51 -72 37 -187 46 -239 18z m613 -77 c103 -43 103 -172
-1 -286 -19 -22 -39 -40 -43 -40 -5 0 -13 15 -19 33 -18 49 -84 157 -130 209
l-42 47 33 17 c70 36 145 44 202 20z"/>
</g>
</svg>
